<svg xmlns="http://www.w3.org/2000/svg" aria-hidden="true" style="position:absolute;width:0;height:0;overflow:hidden">
  <defs>
    <symbol id="shop-bag-full" viewBox="0 0 32 32">
      <path fill="none" stroke="#1f1b1a" stroke-width=".941" d="M4.461 17.89c-.901-4.208-1.353-6.312-.222-7.709 1.129-1.398 3.282-1.398 7.585-1.398h6.47c4.304 0 6.454 0 7.585 1.398 1.129 1.398.679 3.501-.222 7.709l-.538 2.51c-.611 2.852-.916 4.278-1.951 5.115s-2.493.837-5.41.837h-5.396c-2.916 0-4.375 0-5.409-.837C5.916 24.678 5.61 23.252 5 20.4l-.538-2.51z" style="stroke:var(--color1, #1f1b1a)"/>
      <path fill="none" stroke="#1f1b1a" stroke-linecap="round" stroke-linejoin="round" stroke-width=".941" d="M10.039 15.059h10.039m-7.529 3.765h5.02m5.019-7.53-3.765-7.529M7.529 11.294l3.765-7.529" style="stroke:var(--color1, #1f1b1a)"/>
      <path fill="#facf5a" d="M24.471 16.941a7.53 7.53 0 1 1 0 15.058 7.53 7.53 0 0 1 0-15.058z" style="fill:var(--color2, #facf5a)"/>
    </symbol>
    <symbol id="shop-bag" viewBox="0 0 32 32">
      <path fill="none" stroke="#1f1b1a" stroke-width=".941" d="M4.461 17.89c-.901-4.208-1.353-6.312-.222-7.709 1.129-1.398 3.282-1.398 7.585-1.398h6.47c4.304 0 6.454 0 7.585 1.398 1.129 1.398.679 3.501-.222 7.709l-.538 2.51c-.611 2.852-.916 4.278-1.951 5.115s-2.493.837-5.41.837h-5.396c-2.916 0-4.375 0-5.409-.837C5.916 24.678 5.61 23.252 5 20.4l-.538-2.51z" style="stroke:var(--color1, #1f1b1a)"/>
      <path fill="none" stroke="#1f1b1a" stroke-linecap="round" stroke-linejoin="round" stroke-width=".941" d="M10.039 15.059h10.039m-7.529 3.765h5.02m5.019-7.53-3.765-7.529M7.529 11.294l3.765-7.529" style="stroke:var(--color1, #1f1b1a)"/>
      <!-- <path fill="#facf5a" d="M24.471 16.941a7.53 7.53 0 1 1 0 15.058 7.53 7.53 0 0 1 0-15.058z" style="fill:var(--color2, #facf5a)"/> -->
    </symbol>
  </defs>
</svg>
