<svg width="47" height="50" viewBox="0 0 47 50" fill="none" xmlns="http://www.w3.org/2000/svg">
<path d="M23.3017 11.1347L32.2219 2.39652C36.1476 -1.53021 42.4164 3.65943 38.4115 7.67582L35.1347 11.1347M23.3017 11.1347L16.5661 4.21698C13.3721 0.461863 7.42896 4.42398 10.3766 8.7681L12.197 11.1347M23.3017 11.1347C21.5529 11.1347 20.7788 11.1347 19.0224 11.1347M23.3017 11.1347C25.2979 11.1347 26.261 11.1347 28.1272 11.1347M35.1347 11.1347C38.7778 11.1347 41.0633 11.1347 42 11.1347C45.0836 11.1347 45.9393 13.9148 46 15.3105V19.5C46 20.6046 45.1046 21.5 44 21.5V21.5M35.1347 11.1347C33.3298 11.1347 30.2939 11.1347 28.1272 11.1347M12.197 11.1347C9.07626 11.1347 7.36684 11.1347 5 11.1347C3.67706 11.1347 1 12.2633 1 15.3217C1 16.8285 1 18.353 1 19.512C1 20.6147 1.89725 21.5062 3 21.5V21.5M12.197 11.1347C14.0747 11.1347 17.0373 11.1347 19.0224 11.1347M3 21.5V45.5299C3 47.5 5 49 7 49C8.15493 49 13.3451 49 19.0224 49M3 21.5H44M44 21.5C44 28.5391 44 43.1998 44 45.5299C44 47.5 42 49 40 49C37.1332 49 32.072 49 28.1272 49M19.0224 11.1347V49M19.0224 49C22.5193 49 24.411 49 28.1272 49M28.1272 49V11.1347" stroke="#1F1B1A" stroke-width="1.5" stroke-linecap="round"/>
</svg>
