<svg width="43" height="50" viewBox="0 0 43 50" fill="none" xmlns="http://www.w3.org/2000/svg">
<path d="M2.75136 18.1363C0.598907 24.4626 -0.477317 39.4921 12.4374 49H30.7946C35.7144 46.0211 44.5395 35.6779 40.4806 18.1363M2.75136 18.1363C-2.34062 13.714 4.87301 9.72169 9.11632 8.27831M2.75136 18.1363C3.67381 18.5662 6.05374 19.1681 8.19389 18.1363C10.334 17.1044 12.6525 17.7063 13.5443 18.1363C14.5282 18.6583 16.7137 19.0446 18.6179 18.1363C21 17 23.261 17.6142 24.5218 18.1363C25.352 18.4741 27.5475 18.947 29.6876 18.1363C32.3628 17.1228 33.8388 17.6756 35.3148 18.1363C36.7907 18.5969 39.0046 18.8733 40.4806 18.1363M40.4806 18.1363C42.6945 16.6929 44.5949 12.7006 34.4845 8.27831M9.11632 8.27831H34.4845M9.11632 8.27831V4C9.11632 2 11 1 12.8063 1C15.463 1 26.09 1 31.0714 1C33 1 34.4845 2 34.4845 4C34.4845 5.76891 34.4845 7.47985 34.4845 8.27831M17.1419 31.4031V26.6123L21.5698 23.6641L25.9977 26.6123V31.4031M17.1419 31.4031L21.5698 34.2591M17.1419 31.4031L12.8063 34.2591V39.142L17.1419 41.8138L21.5698 39.142M21.5698 34.2591L25.9977 31.4031M21.5698 34.2591V39.142M25.9977 31.4031L30.1489 34.2591V39.142L25.9977 41.4453L21.5698 39.142" stroke="#1F1B1A" stroke-width="1.5" stroke-linecap="round"/>
</svg>
