<svg width="46" height="50" viewBox="0 0 46 50" fill="none" xmlns="http://www.w3.org/2000/svg">
<path d="M1.62327 49C3.93892 47.988 7.10541 46.3659 10.5127 44.2506M29.9077 24.5977C26.5101 32.6859 17.9394 39.6399 10.5127 44.2506M10.5127 44.2506C20.1276 48.1621 49.5219 43.7137 44.0631 8.35032C43.9832 7.83266 43.5363 7.4307 43.0127 7.44196C36.3259 7.5857 26.0098 9.89755 18.0234 16.8213M6.74143 38.81C6.97038 37.0171 7.29797 35.3204 7.71301 33.7151M10.8689 25.6704C11.0195 22.6313 10.9437 15.5877 9.43519 11.7263M10.8689 25.6704C9.56192 28.0543 8.48585 30.726 7.71301 33.7151M10.8689 25.6704C12.8195 22.1126 15.2844 19.1957 18.0234 16.8213M7.71301 33.7151C2.52438 28.0747 -4.53288 13.8488 8.07709 1.5246C8.39978 1.20922 8.89497 1.12946 9.28082 1.36337C12.2909 3.1882 17.3996 8.25493 18.0234 16.8213" stroke="#1F1B1A" stroke-width="1.5" stroke-linecap="round"/>
</svg>
