<svg aria-hidden="true" style="position:absolute;width:0;height:0;overflow:hidden">
  <defs>
    <symbol xmlns="http://www.w3.org/2000/svg" id="happyBox" fill="none" width="47" height="50" viewBox="0 0 47 50">
      <path stroke="#1F1B1A" stroke-linecap="round" stroke-width="1.5" d="m23.302 11.135 8.92-8.738c3.926-3.927 10.194 1.262 6.19 5.279l-3.277 3.459m-11.833 0-6.736-6.918c-3.194-3.755-9.137.207-6.19 4.551l1.821 2.367m11.105 0h-4.28m4.28 0h4.825m7.008 0H42c3.084 0 3.94 2.78 4 4.175v4.19a2 2 0 0 1-2 2v0m-8.865-10.365h-7.008m-15.93 0H5c-1.323 0-4 1.128-4 4.187v4.19c0 1.103.897 1.994 2 1.988v0m9.197-10.365h6.825M3 21.5v24.03C3 47.5 5 49 7 49h12.022M3 21.5h41m0 0v24.03C44 47.5 42 49 40 49H28.127m-9.105-37.865V49m0 0h9.105m0 0V11.135"/>
    </symbol>
    <symbol xmlns="http://www.w3.org/2000/svg" id="honeyCan" fill="none" width="43" height="50" viewBox="0 0 43 50">
      <path stroke="#1F1B1A" stroke-linecap="round" stroke-width="1.5" d="M2.751 18.136C.6 24.463-.477 39.492 12.437 49h18.358c4.92-2.979 13.744-13.322 9.686-30.864m-37.73 0c-5.092-4.422 2.122-8.414 6.365-9.858m-6.365 9.858c.923.43 3.303 1.032 5.443 0 2.14-1.032 4.458-.43 5.35 0 .984.522 3.17.909 5.074 0 2.382-1.136 4.643-.522 5.904 0 .83.338 3.026.811 5.166 0 2.675-1.013 4.15-.46 5.627 0 1.476.46 3.69.737 5.166 0m0 0c2.213-1.443 4.114-5.435-5.997-9.858m-25.368 0h25.368m-25.368 0V4c0-2 1.884-3 3.69-3h18.265C33 1 34.484 2 34.484 4v4.278M17.142 31.403v-4.79l4.428-2.949 4.428 2.948v4.791m-8.856 0 4.428 2.856m-4.428-2.856-4.336 2.856v4.883l4.336 2.672 4.428-2.672m0-4.883 4.428-2.856M21.57 34.26v4.883m4.428-7.739 4.15 2.856v4.883l-4.15 2.303-4.428-2.303"/>
    </symbol>
    <symbol xmlns="http://www.w3.org/2000/svg" id="leaves" fill="none" width="46" height="50" viewBox="0 0 46 50">
      <path stroke="#1F1B1A" stroke-linecap="round" stroke-width="1.5" d="M1.623 49c2.316-1.012 5.482-2.634 8.89-4.75m19.395-19.652C26.51 32.686 17.939 39.64 10.513 44.25m0 0c9.615 3.911 39.009-.537 33.55-35.9-.08-.518-.527-.92-1.05-.909-6.687.144-17.003 2.456-24.99 9.38M6.741 38.81c.23-1.793.557-3.49.972-5.095m3.156-8.045c.15-3.039.075-10.082-1.434-13.944M10.87 25.67c-1.307 2.384-2.383 5.056-3.156 8.045m3.156-8.045a32.036 32.036 0 0 1 7.154-8.849M7.713 33.715c-5.189-5.64-12.246-19.866.364-32.19.323-.316.818-.396 1.204-.162 3.01 1.825 8.119 6.892 8.742 15.458"/>
    </symbol>
    <symbol xmlns="http://www.w3.org/2000/svg" id="sota" fill="none" viewBox="0 0 106 96">
      <path fill="#FACF5A" d="M1.574 53.938a11.991 11.991 0 0 1 0-11.877L22.2 5.939C24.299 2.264 28.177 0 32.373 0h41.254c4.196 0 8.074 2.264 10.172 5.938l20.627 36.124a11.988 11.988 0 0 1 0 11.877L83.799 90.06C81.701 93.736 77.823 96 73.627 96H32.373c-4.196 0-8.074-2.264-10.172-5.939L1.574 53.938Z" opacity=".8"/>
    </symbol>
  </defs>
</svg>
