<svg aria-hidden="true" style="position: absolute; width: 0; height: 0; overflow: hidden;" version="1.1" xmlns="http://www.w3.org/2000/svg" xmlns:xlink="http://www.w3.org/1999/xlink">
<defs>
<symbol id="happyBox"  width="47" height="50" viewBox="0 0 47 50" fill="none" xmlns="http://www.w3.org/2000/svg">
<path d="M23.3017 11.1347L32.2219 2.39652C36.1476 -1.53021 42.4164 3.65943 38.4115 7.67582L35.1347 11.1347M23.3017 11.1347L16.5661 4.21698C13.3721 0.461863 7.42896 4.42398 10.3766 8.7681L12.197 11.1347M23.3017 11.1347C21.5529 11.1347 20.7788 11.1347 19.0224 11.1347M23.3017 11.1347C25.2979 11.1347 26.261 11.1347 28.1272 11.1347M35.1347 11.1347C38.7778 11.1347 41.0633 11.1347 42 11.1347C45.0836 11.1347 45.9393 13.9148 46 15.3105V19.5C46 20.6046 45.1046 21.5 44 21.5V21.5M35.1347 11.1347C33.3298 11.1347 30.2939 11.1347 28.1272 11.1347M12.197 11.1347C9.07626 11.1347 7.36684 11.1347 5 11.1347C3.67706 11.1347 1 12.2633 1 15.3217C1 16.8285 1 18.353 1 19.512C1 20.6147 1.89725 21.5062 3 21.5V21.5M12.197 11.1347C14.0747 11.1347 17.0373 11.1347 19.0224 11.1347M3 21.5V45.5299C3 47.5 5 49 7 49C8.15493 49 13.3451 49 19.0224 49M3 21.5H44M44 21.5C44 28.5391 44 43.1998 44 45.5299C44 47.5 42 49 40 49C37.1332 49 32.072 49 28.1272 49M19.0224 11.1347V49M19.0224 49C22.5193 49 24.411 49 28.1272 49M28.1272 49V11.1347" stroke="#1F1B1A" stroke-width="1.5" stroke-linecap="round"/>
</symbol>
<symbol id="honeyCan" width="43" height="50" viewBox="0 0 43 50" fill="none" xmlns="http://www.w3.org/2000/svg">
<path d="M2.75136 18.1363C0.598907 24.4626 -0.477317 39.4921 12.4374 49H30.7946C35.7144 46.0211 44.5395 35.6779 40.4806 18.1363M2.75136 18.1363C-2.34062 13.714 4.87301 9.72169 9.11632 8.27831M2.75136 18.1363C3.67381 18.5662 6.05374 19.1681 8.19389 18.1363C10.334 17.1044 12.6525 17.7063 13.5443 18.1363C14.5282 18.6583 16.7137 19.0446 18.6179 18.1363C21 17 23.261 17.6142 24.5218 18.1363C25.352 18.4741 27.5475 18.947 29.6876 18.1363C32.3628 17.1228 33.8388 17.6756 35.3148 18.1363C36.7907 18.5969 39.0046 18.8733 40.4806 18.1363M40.4806 18.1363C42.6945 16.6929 44.5949 12.7006 34.4845 8.27831M9.11632 8.27831H34.4845M9.11632 8.27831V4C9.11632 2 11 1 12.8063 1C15.463 1 26.09 1 31.0714 1C33 1 34.4845 2 34.4845 4C34.4845 5.76891 34.4845 7.47985 34.4845 8.27831M17.1419 31.4031V26.6123L21.5698 23.6641L25.9977 26.6123V31.4031M17.1419 31.4031L21.5698 34.2591M17.1419 31.4031L12.8063 34.2591V39.142L17.1419 41.8138L21.5698 39.142M21.5698 34.2591L25.9977 31.4031M21.5698 34.2591V39.142M25.9977 31.4031L30.1489 34.2591V39.142L25.9977 41.4453L21.5698 39.142" stroke="#1F1B1A" stroke-width="1.5" stroke-linecap="round"/>
</symbol>
<symbol id="leaves" width="46" height="50" viewBox="0 0 46 50" fill="none" xmlns="http://www.w3.org/2000/svg">
<path d="M1.62327 49C3.93892 47.988 7.10541 46.3659 10.5127 44.2506M29.9077 24.5977C26.5101 32.6859 17.9394 39.6399 10.5127 44.2506M10.5127 44.2506C20.1276 48.1621 49.5219 43.7137 44.0631 8.35032C43.9832 7.83266 43.5363 7.4307 43.0127 7.44196C36.3259 7.5857 26.0098 9.89755 18.0234 16.8213M6.74143 38.81C6.97038 37.0171 7.29797 35.3204 7.71301 33.7151M10.8689 25.6704C11.0195 22.6313 10.9437 15.5877 9.43519 11.7263M10.8689 25.6704C9.56192 28.0543 8.48585 30.726 7.71301 33.7151M10.8689 25.6704C12.8195 22.1126 15.2844 19.1957 18.0234 16.8213M7.71301 33.7151C2.52438 28.0747 -4.53288 13.8488 8.07709 1.5246C8.39978 1.20922 8.89497 1.12946 9.28082 1.36337C12.2909 3.1882 17.3996 8.25493 18.0234 16.8213" stroke="#1F1B1A" stroke-width="1.5" stroke-linecap="round"/>
</symbol>
<symbol id="sota" width="106" height="96" viewBox="0 0 106 96" fill="none" xmlns="http://www.w3.org/2000/svg">
<path opacity="0.8" d="M1.57374 53.9385C-0.524579 50.2637 -0.52458 45.7363 1.57374 42.0615L22.2005 5.93846C24.2988 2.26373 28.1766 2.00874e-06 32.3733 1.82326e-06L73.6267 0C77.8234 -1.85477e-07 81.7012 2.26373 83.7995 5.93846L104.426 42.0615C106.525 45.7363 106.525 50.2637 104.426 53.9385L83.7995 90.0615C81.7012 93.7363 77.8234 96 73.6267 96H32.3733C28.1766 96 24.2988 93.7363 22.2005 90.0615L1.57374 53.9385Z" fill="#FACF5A"/>
</symbol>
</defs>
</svg>
