<svg xmlns="http://www.w3.org/2000/svg" aria-hidden="true" style="position:absolute;width:0;height:0;overflow:hidden"><defs><symbol id="removal-bucket" viewBox="0 0 29 32"><path fill="#858585" d="M25.229 10.783a.667.667 0 0 1 .621.71l-.715 10.733-.066.975-.016.235c-.286 4.076-.627 5.506-1.885 6.683-1.361 1.275-2.625 1.44-8.009 1.44h-1.655c-5.005-.01-6.236-.201-7.558-1.439-1.362-1.273-1.612-2.529-1.968-7.894l-.716-10.733a.667.667 0 1 1 1.331-.089l.716 10.734c.328 4.944.554 6.079 1.548 7.009s2.136 1.08 7.098 1.08H15.6c4.59-.009 5.694-.177 6.658-1.08.913-.853 1.205-2.08 1.466-5.802l.016-.234.066-.972.715-10.733a.667.667 0 0 1 .71-.621zM10.6 14.674a.667.667 0 0 1 .73.597l.778 7.778a.667.667 0 0 1-1.327.133l-.778-7.778a.667.667 0 0 1 .597-.73zm7.79-.002.12.001a.667.667 0 0 1 .597.73l-.778 7.778a.667.667 0 1 1-1.327-.133l.778-7.778a.667.667 0 0 1 .73-.597l-.12-.001zm9.388-7.779a.667.667 0 1 1 0 1.334H1.334a.667.667 0 1 1 0-1.334h26.444zM14.556.667a5.333 5.333 0 0 1 5.031 3.56.667.667 0 0 1-1.258.444 4.001 4.001 0 0 0-7.546 0 .668.668 0 0 1-1.258-.444 5.335 5.335 0 0 1 5.031-3.56z" style="fill:var(--color1, #858585)"/></symbol><symbol id="arrow-left" viewBox="0 0 32 32"><path d="M18.977 6.12c-.251.163-8.244 9.543-8.283 9.72a.882.882 0 0 0 .001.326l-.001-.006c.039.177 8.032 9.557 8.283 9.72.31.201.783.077.936-.246.1-.21.109-.343.037-.534-.028-.074-1.78-2.151-3.894-4.617L12.213 16l3.843-4.483C18.17 9.052 19.922 6.974 19.95 6.9c.071-.187.063-.324-.03-.521-.156-.329-.633-.459-.943-.259z"/></symbol><symbol id="arrow-right" viewBox="0 0 32 32"><path d="M12.307 6.12a.66.66 0 0 0-.255.784l-.002-.005c.028.074 1.78 2.151 3.894 4.617l3.843 4.483-3.843 4.483c-2.114 2.465-3.866 4.543-3.894 4.617-.072.191-.063.324.037.534.153.323.626.447.936.246.251-.163 8.244-9.543 8.283-9.72a.879.879 0 0 0 0-.326l.001.006c-.039-.177-8.032-9.557-8.283-9.72-.181-.117-.527-.117-.717 0z"/></symbol><symbol id="box" viewBox="0 0 32 32"><path d="M22.412 1.94a3.8 3.8 0 0 0-.638.253c-.386.195-.983.749-4.067 3.777l-1.52 1.493-.721-.731c-.397-.402-1.31-1.333-2.029-2.069-1.203-1.231-1.339-1.353-1.706-1.532-1.022-.499-2.179-.317-3.038.479-.542.502-.854 1.309-.776 2.004.065.579.256.998.758 1.667l.28.373-1.931.027c-2.17.03-2.145.026-2.802.475-.548.376-.871.794-1.082 1.401-.107.306-.12.467-.142 1.76-.026 1.565.017 2.002.228 2.337.181.285.442.517.706.627l.226.093.029 13.922.174.354c.322.654 1.106 1.245 1.865 1.406.541.115 19.595.115 20.135 0 .775-.164 1.499-.717 1.838-1.402l.201-.407.014-6.939.014-6.939.176-.063c.251-.091.598-.405.769-.695l.146-.249.017-1.573c.011-1.019-.005-1.686-.043-1.894-.13-.692-.664-1.511-1.208-1.855-.501-.316-.587-.328-2.553-.358l-1.813-.027.662-.693c1.058-1.11 1.294-1.494 1.37-2.231.046-.442-.081-1.026-.307-1.422-.314-.549-.972-1.07-1.633-1.293-.395-.133-1.219-.171-1.599-.075zm1.547.979c.731.342 1.129.898 1.133 1.585.003.594-.137.812-1.323 2.066-.554.586-1.035 1.077-1.069 1.089s-1.28.017-2.771.009l-2.711-.014 2.267-2.223c1.247-1.223 2.369-2.287 2.494-2.366.624-.394 1.338-.446 1.981-.145zm-12.626.971c.27.134.553.397 1.815 1.694.537.549 1.109 1.14 1.678 1.735l.077.081.259.28-5.108-.001-.467-.612c-.551-.722-.703-.991-.788-1.399-.165-.793.36-1.605 1.222-1.89.418-.138.89-.098 1.314.111zm1.947 7.152v2.561l-8.933-.03-.179-.128c-.306-.218-.327-.335-.327-1.783 0-1.357.038-1.726.214-2.089.131-.271.485-.633.798-.817.442-.259.566-.267 4.628-.271l3.8-.005v2.562zm5.227-.001v2.561l-4.347-.028-.014-2.48c-.008-1.364-.003-2.51.011-2.546.02-.052.507-.067 2.187-.067h2.162v2.561zm9.13-2.36c.413.203.64.441.851.891.214.457.271.997.25 2.339-.019 1.258-.026 1.283-.385 1.551-.145.109-.197.11-4.57.125l-4.423.014V8.474l7.922.031.354.174zM13.28 21.84v7.44l-3.373.001c-3.33.001-3.378-.001-3.705-.116-.426-.149-.797-.431-1.001-.761l-.162-.262-.014-6.871-.014-6.871h8.268v7.44zm5.227 0v7.44h-4.374v-7.405c0-4.073.016-7.421.036-7.44s1.003-.035 2.186-.035h2.151v7.44zm9.066-.653v6.786l-.125.267c-.154.331-.533.685-.931.871l-.303.142-6.853.03V14.4h8.213l-.001 6.787z"/></symbol><symbol id="cross-close" viewBox="0 0 32 32"><path d="M9.238 8.914a.762.762 0 0 0-.351 1.026l-.002-.004c.047.094 1.409 1.497 3.027 3.118L14.853 16l-2.941 2.946c-1.618 1.621-2.98 3.024-3.027 3.118-.325.652.401 1.377 1.051 1.05.094-.047 1.497-1.409 3.118-3.026l2.947-2.941 2.946 2.942c1.62 1.618 3.023 2.979 3.117 3.026a.72.72 0 0 0 .709-.028c.371-.209.522-.662.342-1.023-.047-.094-1.409-1.497-3.026-3.117l-2.942-2.946 2.941-2.947c1.618-1.621 2.979-3.024 3.026-3.118a.757.757 0 0 0-.352-1.022l-.005-.002c-.277-.134-.402-.139-.666-.03-.138.057-1.11.992-3.146 3.026l-2.946 2.944-2.946-2.944c-2.036-2.034-3.008-2.969-3.146-3.026-.265-.11-.398-.104-.67.031z"/></symbol><symbol id="menu" viewBox="0 0 32 32"><path d="M8.68 11.311c-.06.035-.093.119-.093.235 0 .373-.556.347 7.413.347 7.971 0 7.413.026 7.413-.348 0-.125-.032-.199-.103-.237-.142-.076-14.499-.074-14.63.002zm-.005 4.466c-.111.123-.113.349-.004.459.075.075.813.084 7.329.084s7.254-.009 7.329-.084c.113-.113.106-.359-.013-.468-.09-.081-.675-.088-7.325-.088-6.934 0-7.231.004-7.316.097zm.03 4.413c-.132.092-.165.383-.055.493.093.093 14.606.093 14.699 0 .035-.035.064-.142.064-.237 0-.364.539-.339-7.413-.339-6.409 0-7.189.009-7.295.083z"/></symbol><symbol id="pot" viewBox="0 0 32 32"><path d="M10.012 1.95c-.738.179-1.311.604-1.597 1.185l-.175.355-.027 1.33-.026 1.33-.534.222c-1.874.78-3.301 1.851-3.819 2.867-.438.859-.293 1.821.407 2.675l.257.314-.069.246c-.611 2.203-.755 4.799-.401 7.206.401 2.719 1.402 5.103 3.057 7.279.527.693 1.955 2.129 2.698 2.714l.585.459h10.811l.33-.222c2.538-1.711 4.652-4.93 5.529-8.418.357-1.417.479-2.344.518-3.92a21.047 21.047 0 0 0-.434-4.912l.024.136-.103-.51.265-.282c.529-.563.777-1.333.639-1.982-.261-1.235-1.433-2.367-3.586-3.466l-.776-.395-.022-1.334c-.021-1.245-.03-1.355-.147-1.654-.231-.591-.877-1.098-1.59-1.247-.198-.042-1.957-.058-5.893-.055-4.616.004-5.666.018-5.919.079zm11.965.909a1.6 1.6 0 0 1 .414.293c.279.296.329.566.329 1.79v1.084H9.067l.001-1.134c.001-.981.014-1.162.098-1.347.16-.353.568-.655 1.047-.776.088-.022 2.716-.037 5.84-.032 5.663.009 5.681.009 5.924.121zm1.953 4.443c1.654.828 2.634 1.62 3.035 2.453.294.609.159 1.27-.354 1.734-.378.342-.513.378-1.385.375-.75-.003-.803-.011-1.734-.258-.842-.224-1.025-.255-1.493-.255-.585 0-1.005.081-1.787.343-.481.161-.547.17-1.306.169-.799-.001-.801-.001-1.44-.222-.837-.289-1.231-.353-1.992-.324-.641.025-.81.069-1.848.477-.282.11-.407.126-1.04.124l-.72-.002-.534-.221c-.657-.271-1.063-.35-1.786-.345-.621.005-.958.078-1.662.359a3.392 3.392 0 0 1-1.699.239c-.697-.09-.917-.182-1.215-.508-.379-.415-.517-.721-.517-1.148 0-.274.033-.413.156-.665.412-.84 1.893-1.899 3.577-2.557l.48-.187 14.421-.004.843.422zm-7.668 4.884c.129.017.525.125.88.24.759.246 1.173.319 1.791.319.598 0 1.018-.072 1.703-.293 1.095-.353 1.559-.357 2.666-.02.281.085.712.191.958.234.498.089 1.413.103 1.738.028.141-.033.223-.03.246.006.043.07.23 1.144.352 2.019.119.858.134 3.578.025 4.427-.389 3.015-1.492 5.693-3.23 7.84-.678.837-1.527 1.647-2.227 2.123l-.25.17H10.65l-.511-.413c-.735-.594-1.823-1.702-2.379-2.424-1.569-2.034-2.481-4.225-2.912-6.993-.158-1.015-.196-3.03-.078-4.143.088-.833.274-1.865.432-2.391.062-.207.106-.276.162-.255.255.098.859.15 1.457.126.555-.022.742-.053 1.072-.173.967-.353 1.11-.395 1.465-.426.487-.043 1.088.066 1.713.31.638.25 1.086.323 1.779.29.576-.027.573-.026 1.817-.478.473-.172.943-.208 1.595-.123zm-1.989 3.525-1.473.982-.001 1.373-.001 1.373-2.451 1.6.001 1.653.001 1.654 1.393.853c.766.469 1.421.861 1.457.869s.626-.325 1.311-.74l1.246-.755.535.272 1.271.651.735.379 2.769-1.53-.013-1.653-.013-1.652-2.32-1.598v-2.734l-2.973-1.982-1.474.983zm3.592 2.571.002 1.135-.76.495c-.418.272-.894.581-1.058.685l-.298.19-2.095-1.347v-2.293l2.104-1.396 2.104 1.396.001 1.135zm-3.582 2.565 1.024.661-.002 1.179-.002 1.18-2.077 1.246-2.078-1.282v-2.282l1.026-.69c.565-.38 1.04-.686 1.057-.681s.49.307 1.053.67zm5.014.023.918.63-.029 2.355-1.897 1.057-.678-.346a35.124 35.124 0 0 1-1.318-.684l.266.133-.373-.205v-2.287l1.04-.676c.572-.372 1.065-.661 1.096-.642s.47.317.974.664z"/></symbol><symbol id="sheets" viewBox="0 0 32 32"><path d="M7.653 2.023c-.267.065-.361.137-.883.682-2.113 2.202-3.338 4.657-3.682 7.375-.083.657-.083 2.18-.001 2.827.242 1.899.835 3.7 1.783 5.413.511.924 1.246 2.002 1.737 2.547l.18.201-.165.813c-.175.862-.329 1.815-.329 2.042 0 .177.223.398.402.398.082 0 .201-.061.287-.147.119-.119.155-.216.185-.494.021-.19.121-.766.223-1.279 1.005-5.057 3.483-8.995 7.464-11.858 3.265-2.347 7.842-3.925 11.959-4.122.87-.042.765-.131.889.753.763 5.431.007 10.127-2.179 13.538-1.822 2.842-4.61 4.879-8.045 5.878-2.47.718-5.481.855-7.419.338l-.207-.055.181-.11c.38-.23 1.76-1.206 2.501-1.767 3.513-2.663 6.025-5.459 7.427-8.261.443-.885.48-1.046.289-1.237a.427.427 0 0 0-.521-.08l.002-.001c-.057.03-.257.373-.445.76-.873 1.804-2.073 3.409-3.886 5.201-1.011.998-1.574 1.507-2.471 2.232-1.838 1.486-4.199 3.053-6.567 4.359-.671.371-2.591 1.313-2.673 1.313-.111 0-.328.289-.328.437 0 .193.213.417.395.417.325 0 2.994-1.355 4.657-2.364l.491-.298.302.103c.925.318 2.321.499 3.808.494 2.628-.009 4.967-.539 7.227-1.637 4.605-2.236 7.415-6.132 8.316-11.525.197-1.178.261-2.075.263-3.654.001-1.601-.042-2.326-.236-3.893-.138-1.117-.171-1.235-.411-1.487-.31-.325-.494-.358-1.606-.285-4.562.3-9.154 1.957-12.594 4.544-.24.18-.446.318-.458.306s-.056-.214-.097-.449a11.773 11.773 0 0 0-1.067-3.296c-.387-.793-.951-1.694-1.437-2.299a12.75 12.75 0 0 0-1.699-1.678c-.788-.611-1.178-.785-1.559-.693zM8.435 3.2c1.577 1.113 3.001 3.111 3.692 5.179.246.738.481 1.769.543 2.394l.035.347-.821.827c-.779.785-1.559 1.705-2.069 2.441-.127.183-.244.322-.258.307s-.046-.501-.07-1.081a40.355 40.355 0 0 0-.112-1.816l.01.148c-.174-1.832-.591-3.645-.894-3.874-.137-.105-.353-.087-.515.041-.127.099-.142.142-.119.333.014.121.101.471.193.779.321 1.077.495 2.374.595 4.426.034.69.046 1.562.026 1.939l-.035.686-.26.518a22.844 22.844 0 0 0-1.071 2.577c-.127.374-.245.68-.261.679s-.213-.258-.436-.573c-1.591-2.239-2.514-4.688-2.719-7.215-.212-2.603.641-5.376 2.346-7.625.545-.719 1.574-1.834 1.665-1.803.026.009.268.172.538.363z"/></symbol><symbol id="linkedin" viewBox="0 0 32 32"><path fill="#fff" d="M24.5 0h-17A7.5 7.5 0 0 0 0 7.5v17A7.5 7.5 0 0 0 7.5 32h17a7.5 7.5 0 0 0 7.5-7.5v-17A7.5 7.5 0 0 0 24.5 0z" style="fill:var(--color2, #fff)"/><path fill="#0a66c2" d="M24.5 0h-17A7.5 7.5 0 0 0 0 7.5v17A7.5 7.5 0 0 0 7.5 32h17a7.5 7.5 0 0 0 7.5-7.5v-17A7.5 7.5 0 0 0 24.5 0z" style="fill:var(--color3, #0a66c2)"/><path fill="#fff" d="M23.089 27.211h3.659a.5.5 0 0 0 .5-.499l.002-7.73c0-4.04-.871-7.146-5.592-7.146a4.904 4.904 0 0 0-4.401 2.404c-.004.008-.011.013-.019.017s-.017.004-.025.002-.016-.007-.021-.014-.008-.015-.008-.024v-1.51a.498.498 0 0 0-.5-.5h-3.472a.498.498 0 0 0-.5.5v14.002a.498.498 0 0 0 .5.5h3.658a.498.498 0 0 0 .5-.5v-6.922c0-1.957.371-3.852 2.798-3.852 2.392 0 2.423 2.239 2.423 3.979v6.795a.498.498 0 0 0 .5.5zM4.75 7.454c0 1.483 1.221 2.703 2.704 2.703s2.703-1.221 2.703-2.704S8.937 4.75 7.454 4.75 4.75 5.97 4.75 7.454zm.87 19.757h3.663a.498.498 0 0 0 .5-.5V12.708a.498.498 0 0 0-.5-.5H5.62a.498.498 0 0 0-.5.5v14.003a.498.498 0 0 0 .5.5z" style="fill:var(--color2, #fff)"/></symbol><symbol id="logo" viewBox="0 0 32 32"><path fill="#facf5a" d="M.255 16.954a1.919 1.919 0 0 1 0-1.909l3.336-5.806a1.897 1.897 0 0 1 1.645-.954h6.672c.679 0 1.306.364 1.645.954l3.336 5.806a1.919 1.919 0 0 1 0 1.909l-3.336 5.805a1.896 1.896 0 0 1-1.645.954H5.236a1.898 1.898 0 0 1-1.645-.954L.255 16.953zM14.826 8.669a1.919 1.919 0 0 1 0-1.909L18.162.954A1.896 1.896 0 0 1 19.807 0h6.672c.679 0 1.306.364 1.645.954L31.46 6.76a1.919 1.919 0 0 1 0 1.909l-3.336 5.805a1.896 1.896 0 0 1-1.645.954h-6.672a1.898 1.898 0 0 1-1.645-.954l-3.336-5.805zM14.826 25.24a1.919 1.919 0 0 1 0-1.909l3.336-5.805a1.896 1.896 0 0 1 1.645-.954h6.672c.679 0 1.306.364 1.645.954l3.336 5.805a1.919 1.919 0 0 1 0 1.909l-3.336 5.806a1.896 1.896 0 0 1-1.645.954h-6.672a1.898 1.898 0 0 1-1.645-.954l-3.336-5.805z" style="fill:var(--color4, #facf5a)"/></symbol><symbol id="minus" viewBox="0 0 32 32"><path fill="none" stroke="#cacaca" d="M16.001 29.333c7.364 0 13.333-5.97 13.333-13.333S23.364 2.667 16.001 2.667 2.668 8.637 2.668 16c0 7.364 5.97 13.333 13.333 13.333z" style="stroke:var(--color5, #cacaca)"/><path fill="none" stroke="#1f1b1a" stroke-linecap="round" d="M20 16h-8" style="stroke:var(--color6, #1f1b1a)"/></symbol><symbol id="plus" viewBox="0 0 32 32"><path fill="none" stroke="#cacaca" d="M16.001 29.333c7.364 0 13.333-5.97 13.333-13.333S23.364 2.667 16.001 2.667 2.668 8.637 2.668 16c0 7.364 5.97 13.333 13.333 13.333z" style="stroke:var(--color5, #cacaca)"/><path fill="none" stroke="#1f1b1a" stroke-linecap="round" d="M20 16h-4m0 0h-4m4 0v-4m0 4v4" style="stroke:var(--color6, #1f1b1a)"/></symbol><symbol id="arrow-link" viewBox="0 0 32 32"><path d="M13.174 7.451c-.198.034-8.353 8.203-8.387 8.402a.957.957 0 0 0 .001.298l-.001-.006c.037.21 8.191 8.365 8.4 8.4.446.077.771-.248.694-.693-.019-.107-.983-1.105-3.578-3.706l-3.552-3.56 10.051-.014c8.685-.011 10.069-.024 10.169-.091.329-.218.329-.746 0-.965-.101-.067-1.485-.08-10.169-.091l-10.051-.014 3.559-3.561c2.648-2.651 3.56-3.595 3.567-3.693.033-.513-.239-.785-.702-.707z"/></symbol><symbol id="basket" viewBox="0 0 32 32"><path d="M13.321 8.414c-.046.051-.431.791-.858 1.644l-.775 1.552-.657.062c-.362.034-.801.1-.977.147-.94.249-1.545.812-1.766 1.64-.116.437-.092 1.343.06 2.277.158.962.916 4.546 1.151 5.438.388 1.473.961 2.116 2.127 2.387.361.084.785.093 4.374.093s4.012-.009 4.374-.093c1.172-.273 1.749-.923 2.131-2.406.248-.962.995-4.492 1.147-5.42.153-.934.177-1.84.06-2.277-.223-.839-.842-1.406-1.796-1.646a9.157 9.157 0 0 0-.976-.15l-.633-.063-.807-1.598c-.444-.879-.848-1.622-.897-1.652-.06-.035-.142-.036-.24-.001-.291.102-.246.259.514 1.778.383.766.697 1.41.697 1.432s-1.608.041-3.574.041c-1.966 0-3.574-.018-3.574-.041s.312-.664.694-1.426c.423-.845.694-1.448.694-1.545 0-.251-.324-.367-.493-.175zM20.32 13l.4.786h.212c.184 0 .218-.02.264-.149s.012-.23-.255-.768l-.308-.619.39.033c.73.063 1.431.315 1.716.617.45.477.56 1.244.357 2.486-.209 1.281-1.008 5.007-1.257 5.868-.378 1.305-.865 1.681-2.314 1.787-.871.063-6.178.063-7.049 0-1.449-.106-1.936-.482-2.314-1.787-.249-.861-1.048-4.586-1.257-5.868-.282-1.728.027-2.549 1.095-2.902.377-.124.871-.218 1.156-.218h.203l-.304.611c-.264.53-.297.631-.252.76s.08.149.264.149h.212l.8-1.573h7.84l.4.786zm-7.734 2.749c-.186.094-.212.369-.044.486.108.076.489.085 3.458.085 3.711 0 3.597.011 3.563-.337-.03-.306.026-.301-3.563-.301-2.529 0-3.311.015-3.414.067zm1.558 2.501c-.095.096-.077.334.033.434.087.079.293.089 1.832.089 1.612 0 1.74-.007 1.823-.098.103-.114.116-.334.024-.425s-3.62-.092-3.712 0z"/></symbol><symbol id="instagram" viewBox="0 0 32 32"><path d="M11.307 2.725c-1.278.05-2.011.122-2.718.266-1.544.315-2.711.944-3.761 2.026-.746.77-1.193 1.49-1.539 2.484-.533 1.532-.62 2.729-.62 8.499s.087 6.967.62 8.499c.224.644.369.938.736 1.501.915 1.4 2.314 2.411 3.975 2.871 1.45.402 2.072.436 8 .436s6.55-.034 8-.436c2.462-.682 4.267-2.522 4.907-5.004.355-1.378.426-2.687.426-7.867 0-5.934-.095-7.108-.703-8.726-.696-1.851-2.302-3.38-4.221-4.017-1.033-.343-1.856-.455-3.929-.536-1.568-.061-7.559-.058-9.173.004zM23.76 7.432c.389.182.587.371.77.739.137.274.163.388.163.713 0 1.659-2.209 2.197-2.972.723-.15-.288-.174-.391-.174-.718.001-.65.297-1.136.864-1.419a1.572 1.572 0 0 1 1.359-.034l-.01-.004zm-6.347 1.874c2.401.535 4.389 2.329 5.093 4.595.287.924.392 2.069.272 2.964-.4 3.005-2.656 5.363-5.625 5.879-.607.106-1.699.106-2.306 0-3.241-.568-5.673-3.361-5.673-6.723v-.022V16c0-3.406 2.444-6.24 5.839-6.771.456-.071 1.952-.023 2.4.077zm-2.32 2.348c-1.646.337-2.985 1.632-3.414 3.306-.137.535-.151 1.443-.029 1.969.207.891.568 1.539 1.225 2.196.902.901 1.859 1.299 3.13 1.301 1.747.002 3.267-.97 4.023-2.573.267-.566.354-.948.385-1.68.022-.547.008-.736-.089-1.153a4.468 4.468 0 0 0-3.399-3.357l-.029-.005c-.49-.101-1.32-.102-1.803-.004z"/></symbol><symbol id="polygon" viewBox="0 0 35 32"><path d="M10.15.064C9.323.204 8.595.6 7.988 1.24c-.394.415-.657.857-3.997 6.713C2.024 11.401.363 14.341.3 14.487c-.152.351-.301 1.093-.301 1.502s.149 1.15.301 1.502c.214.492 7.264 12.785 7.493 13.063a3.83 3.83 0 0 0 1.305 1.011c.886.43.537.413 8.568.413 8.029 0 7.68.017 8.568-.412a3.845 3.845 0 0 0 1.297-1.01c.236-.278 7.288-12.571 7.496-13.065.195-.464.274-.897.274-1.502s-.079-1.037-.274-1.502c-.061-.146-1.72-3.086-3.686-6.534-3.335-5.847-3.604-6.299-3.996-6.714A3.79 3.79 0 0 0 25.705.19l-.471-.161-7.391-.008c-4.065-.005-7.527.014-7.693.043z"/></symbol><symbol id="telegram" viewBox="0 0 32 32"><path d="M14.809 2.723c-2.115.221-3.935.815-5.636 1.84-3.296 1.986-5.535 5.173-6.259 8.908C1.707 19.7 5.079 25.93 10.961 28.338c1.684.69 3.131.968 5.039.968 1.54 0 2.486-.133 3.824-.538 2.17-.655 3.977-1.739 5.591-3.353 2.121-2.121 3.379-4.667 3.822-7.735.04-.281.069-.978.069-1.68s-.029-1.399-.069-1.68c-.31-2.146-1.002-3.984-2.147-5.697-2.122-3.176-5.363-5.234-9.14-5.802-.807-.122-2.432-.173-3.141-.098zm7.057 8.077c.361.186.388.418.213 1.843-.27 2.197-1.305 8.439-1.516 9.144-.12.402-.341.706-.606.834-.208.101-.262.106-.534.052a2.508 2.508 0 0 1-.558-.19l.015.006c-.285-.148-4.398-2.926-4.578-3.093-.314-.291-.359-.653-.121-.975.182-.245.727-.777 2.326-2.273 1.489-1.392 2.16-2.079 2.16-2.21 0-.135-.1-.231-.24-.231-.127 0-1.253.724-4.16 2.675-2.147 1.441-2.432 1.593-2.984 1.59-.368-.001-1.009-.151-2.056-.479-1.003-.314-1.353-.482-1.439-.69-.133-.321.114-.568.912-.916 6.913-3.015 10.361-4.462 11.753-4.932.751-.253 1.141-.296 1.413-.155z"/></symbol>
    <symbol xmlns="http://www.w3.org/2000/svg" id="happyBox" fill="none" width="47" height="50" viewBox="0 0 47 50">
        <path stroke="#1F1B1A" stroke-linecap="round" stroke-width="1.5" d="m23.302 11.135 8.92-8.738c3.926-3.927 10.194 1.262 6.19 5.279l-3.277 3.459m-11.833 0-6.736-6.918c-3.194-3.755-9.137.207-6.19 4.551l1.821 2.367m11.105 0h-4.28m4.28 0h4.825m7.008 0H42c3.084 0 3.94 2.78 4 4.175v4.19a2 2 0 0 1-2 2v0m-8.865-10.365h-7.008m-15.93 0H5c-1.323 0-4 1.128-4 4.187v4.19c0 1.103.897 1.994 2 1.988v0m9.197-10.365h6.825M3 21.5v24.03C3 47.5 5 49 7 49h12.022M3 21.5h41m0 0v24.03C44 47.5 42 49 40 49H28.127m-9.105-37.865V49m0 0h9.105m0 0V11.135"/>
      </symbol>
      <symbol xmlns="http://www.w3.org/2000/svg" id="honeyCan" fill="none" width="43" height="50" viewBox="0 0 43 50">
        <path stroke="#1F1B1A" stroke-linecap="round" stroke-width="1.5" d="M2.751 18.136C.6 24.463-.477 39.492 12.437 49h18.358c4.92-2.979 13.744-13.322 9.686-30.864m-37.73 0c-5.092-4.422 2.122-8.414 6.365-9.858m-6.365 9.858c.923.43 3.303 1.032 5.443 0 2.14-1.032 4.458-.43 5.35 0 .984.522 3.17.909 5.074 0 2.382-1.136 4.643-.522 5.904 0 .83.338 3.026.811 5.166 0 2.675-1.013 4.15-.46 5.627 0 1.476.46 3.69.737 5.166 0m0 0c2.213-1.443 4.114-5.435-5.997-9.858m-25.368 0h25.368m-25.368 0V4c0-2 1.884-3 3.69-3h18.265C33 1 34.484 2 34.484 4v4.278M17.142 31.403v-4.79l4.428-2.949 4.428 2.948v4.791m-8.856 0 4.428 2.856m-4.428-2.856-4.336 2.856v4.883l4.336 2.672 4.428-2.672m0-4.883 4.428-2.856M21.57 34.26v4.883m4.428-7.739 4.15 2.856v4.883l-4.15 2.303-4.428-2.303"/>
      </symbol>
      <symbol xmlns="http://www.w3.org/2000/svg" id="leaves" fill="none" width="46" height="50" viewBox="0 0 46 50">
        <path stroke="#1F1B1A" stroke-linecap="round" stroke-width="1.5" d="M1.623 49c2.316-1.012 5.482-2.634 8.89-4.75m19.395-19.652C26.51 32.686 17.939 39.64 10.513 44.25m0 0c9.615 3.911 39.009-.537 33.55-35.9-.08-.518-.527-.92-1.05-.909-6.687.144-17.003 2.456-24.99 9.38M6.741 38.81c.23-1.793.557-3.49.972-5.095m3.156-8.045c.15-3.039.075-10.082-1.434-13.944M10.87 25.67c-1.307 2.384-2.383 5.056-3.156 8.045m3.156-8.045a32.036 32.036 0 0 1 7.154-8.849M7.713 33.715c-5.189-5.64-12.246-19.866.364-32.19.323-.316.818-.396 1.204-.162 3.01 1.825 8.119 6.892 8.742 15.458"/>
      </symbol>
      <symbol xmlns="http://www.w3.org/2000/svg" id="sota" fill="none" viewBox="0 0 106 96">
        <path fill="#FACF5A" d="M1.574 53.938a11.991 11.991 0 0 1 0-11.877L22.2 5.939C24.299 2.264 28.177 0 32.373 0h41.254c4.196 0 8.074 2.264 10.172 5.938l20.627 36.124a11.988 11.988 0 0 1 0 11.877L83.799 90.06C81.701 93.736 77.823 96 73.627 96H32.373c-4.196 0-8.074-2.264-10.172-5.939L1.574 53.938Z" opacity=".8"/>
      </symbol>
</defs></svg>